<svg xmlns="http://www.w3.org/2000/svg" viewBox="0 0 64 64" role="img" aria-labelledby="title desc">
  <title id="title">정치 블로그 아이콘</title>
  <desc id="desc">단색 원형과 마이크 아이콘</desc>
  <rect width="64" height="64" rx="12" fill="#13294b" />
  <path d="M32 13c-10.5 0-19 8.5-19 19 0 8.2 5.1 15.1 12.3 18v6.7c0 .7.4 1.4 1 1.8.4.3.9.5 1.4.5h11.3c1.3 0 2.3-1 2.3-2.3v-6.7C45.9 47.1 51 40.2 51 32 51 21.5 42.5 13 32 13Zm8.5 32.8v5.3h-17v-5.3l-.5-.3C15.4 44 12 38.5 12 32c0-11 9-20 20-20s20 9 20 20c0 6.5-3.4 12-7.5 14.5Z" fill="#fff"/>
  <path d="M25 31.5c0 3.6 2.9 6.5 6.5 6.5h1v5h-1a1.5 1.5 0 0 0-1.5 1.5v1h11v-1a1.5 1.5 0 0 0-1.5-1.5h-1V38c3.6 0 6.5-2.9 6.5-6.5 0-1.6-.5-3.2-1.5-4.5H31.5A6.5 6.5 0 0 0 25 31.5Zm3.5 0a3 3 0 1 1 3 3 3 3 0 0 1-3-3Z" fill="#ffd166"/>
</svg>
